# xmcd
#
# Track frame offsets: 
#        150
#        18575
#        39297
#        60242
#        83580
#        102382
#        124142
#        144895
#
# Disc length: 2219 seconds
#
# Revision: 1
# Processed by: cddbd v1.5.2PL0 Copyright (c) Steve Scherf et al.
# Submitted via: ExactAudioCopy v0.99pb5
#
DISCID=5908a908
DTITLE=Cano Estremera - Diferente
DYEAR=1900
DGENRE=Salsa
TTITLE0=Cheque Certificado
TTITLE1=Aguita Pura
TTITLE2=Señora
TTITLE3=Amor En Silencio
TTITLE4=La Salsa Está Buena
TTITLE5=De Que Vale
TTITLE6=Feminomania
TTITLE7=Hasta La Madrugada
EXTD=
EXTT0=
EXTT1=
EXTT2=
EXTT3=
EXTT4=
EXTT5=
EXTT6=
EXTT7=
PLAYORDER=
